<?xml version="1.0" encoding="UTF-8"?> <svg xmlns="http://www.w3.org/2000/svg" width="43" height="31" viewBox="0 0 43 31" fill="none"> <path d="M13.2817 15.0757C16.1001 16.561 17.5093 19.0176 17.5093 22.4453C17.4712 24.7305 16.6523 26.6348 15.0527 28.1582C13.4912 29.6816 11.8726 30.4434 10.1968 30.4434C10.1587 30.4434 10.1396 30.4243 10.1396 30.3862C8.42578 30.3862 7.05469 30.1768 6.02637 29.7578C4.95996 29.3008 4.0459 28.7295 3.28418 28.0439C1.6084 26.5205 0.770508 24.6543 0.770508 22.4453C0.770508 15.7422 5.81689 8.44873 15.9097 0.564941C17.0142 0.564941 17.8521 0.869629 18.4233 1.479C19.0327 2.08838 19.3374 2.90723 19.3374 3.93555C15.3003 8.46777 13.2817 12.1812 13.2817 15.0757ZM36.0762 15.0757C38.8945 16.561 40.3037 19.0176 40.3037 22.4453C40.3037 24.7305 39.5039 26.6348 37.9043 28.1582C36.3428 29.6816 34.7051 30.4434 32.9912 30.4434L32.9341 30.3862C31.2202 30.3862 29.8491 30.1768 28.8208 29.7578C27.7925 29.3008 26.8975 28.7295 26.1357 28.0439C24.46 26.5205 23.603 24.6543 23.5649 22.4453C23.5649 15.7422 28.6113 8.44873 38.7041 0.564941C39.8086 0.564941 40.6465 0.869629 41.2178 1.479C41.8271 2.08838 42.1318 2.90723 42.1318 3.93555C38.0947 8.46777 36.0762 12.1812 36.0762 15.0757Z" fill="#E9E9E9"></path> </svg> 