<?xml version="1.0" encoding="UTF-8"?> <svg xmlns="http://www.w3.org/2000/svg" width="313" height="465" viewBox="0 0 313 465" fill="none"> <path fill-rule="evenodd" clip-rule="evenodd" d="M311.471 121.03C311.206 121.03 310.939 120.974 310.691 120.825C309.576 120.19 309.911 119.649 308.972 120.62C308.495 121.124 307.467 120.937 306.918 120.75C305.625 120.321 306.369 119.35 305.022 120.414C304.154 121.105 303.162 121.721 304.721 122.562C304.721 122.786 303.994 122.991 303.853 123.178C303.605 123.533 303.817 124.018 303.729 124.41C303.552 125.176 302.099 125.045 301.603 125.493C301.266 125.792 301.071 126.949 300.628 126.669C300.31 126.482 299.708 125.568 299.318 125.213C297.97 123.999 298.112 123.85 296.234 123.85C295.331 123.85 295.632 123.14 295.331 122.73C294.782 122.879 295.083 124.093 295.153 124.466C295.331 125.381 294.924 125.325 294.816 126.072C294.71 126.819 294.994 127.379 295.064 128.107C295.064 128.947 295.632 131.057 294.515 131.001C293.665 130.964 292.301 130.945 292.053 132.289C291.858 133.335 292.851 133.708 291.433 134.343C290.512 134.754 289.236 136.472 288.261 136.509C287.216 136.546 285.817 133.578 285.41 133.484C284.7 133.298 283.619 134.661 283.106 135.015C282.22 135.631 283.176 136.173 283.833 136.714C284.683 137.442 285.853 137.088 285.8 138.544C285.764 139.235 286.472 141.214 284.878 140.822C284.541 140.729 281.955 138.264 281.529 138.712C281.671 139.758 283.248 139.627 283.407 140.318C283.638 140.374 283.337 141.083 283.265 141.214C283.053 141.606 282.61 141.849 282.256 142.092C281.016 142.857 281.707 144.164 280.961 144.612C279.42 145.564 277.259 140.934 276.232 143.473C276.285 144.482 277.224 144.855 277.596 145.471C277.862 145.901 275.966 146.05 276.799 146.479C277.383 146.778 277.366 146.461 277.33 147.207C277.277 148.16 278.375 147.861 278.305 148.664C278.251 149.149 276.338 150.027 275.913 150.027C274.584 150.027 273.096 147.861 271.926 147.301C271.04 146.89 271.89 148.16 272.121 148.346C272.67 148.832 272.865 149.541 273.397 149.97C274.495 150.905 273.893 151.521 273.308 152.286C272.937 152.772 271.767 156.357 271.023 155.833C270.703 155.591 270.703 154.377 270.491 154.433C269.73 154.639 269.747 157.869 268.259 156.3C267.727 155.74 267 156.095 266.735 155.311C266.222 153.855 266.362 155.573 266.15 156.039C265.725 157.01 264.857 156.711 264.591 158.037C264.361 159.12 265.229 160.482 263.776 160.184C262.217 159.867 262.802 160.818 261.757 159.251C261.349 158.653 261.952 161.136 261.668 161.509C260.18 162.593 261.438 163.638 259.613 163.787C258.143 163.9 257.327 166.271 256.318 166.308C255.059 166.365 255.964 166.252 254.917 166.756C254.209 167.112 252.933 168.325 252.207 168.25C251.711 168.194 251.144 167.503 250.896 167.541C250.453 168.492 251.941 168.679 251.746 169.483C251.657 169.819 249.975 171.181 249.691 171.199C248.912 171.219 248.61 170.49 247.972 170.49L247.937 170.565C248.008 170.976 248.469 172.619 248.717 172.899C249.425 173.702 248.185 175.215 247.264 175.737C245.492 176.726 246.272 175.811 245.687 177.455C245.492 177.978 245.333 178.687 245.263 179.229C245.263 180.573 245.386 181.731 245.068 183.056C244.854 183.971 244.553 185.521 244.82 186.436C245.032 187.183 244.093 187.219 243.631 187.219C242.711 187.219 242.02 188.19 241.647 186.883C241.505 186.343 240.407 186.361 239.981 186.212C239.521 185.445 240.691 184.905 239.627 183.896C238.936 183.243 237.236 183.149 236.917 182.309C236.669 181.656 236.704 180.816 236.58 180.125C236.474 179.565 235.198 178.313 235.34 178.033C235.553 177.622 237.909 177.175 237.236 176.838C236.474 176.428 235.96 176.876 235.234 176.876C234.667 176.876 234.755 175.682 234.561 175.289C234.118 174.448 233.32 173.982 233.462 172.899C233.693 171.199 232.984 171.257 231.938 170.21C231.124 169.352 230.043 169.501 229.21 168.848C228.43 168.232 228.235 167.298 227.101 167.036C227.012 167.018 226.482 166.981 226.463 166.925L228.023 166.458L226.162 164.142C225.613 163.451 225.524 166.085 224.551 166.085C222.885 166.085 217.888 164.907 216.737 165.86C215.338 167.036 214.7 164.554 213.087 164.554C211.936 164.554 210.448 164.889 209.367 164.683L205.434 166.14C204.548 166.458 203.626 167.614 202.776 167.652C202.191 167.672 201.837 167.036 201.589 167.036C201.483 167.465 201.837 168.623 201.731 168.641C200.809 168.772 200.118 168.885 199.232 169.259L194.608 171.257C193.953 171.537 193.173 172.544 192.607 173.011C191.011 174.337 190.18 171.666 189.559 171.666C189.559 172.357 189.824 173.086 189.86 173.777C189.877 174.43 188.709 173.982 188.355 174.673C187.823 175.737 185.731 178.911 184.686 179.489C184.226 180.218 184.173 181.171 183.659 181.88C183.198 182.478 182.826 183.131 182.49 183.803C181.71 185.372 179.992 185.707 179.159 187.014C178.504 188.023 178.025 189.088 177.599 190.226C177.033 191.719 175.899 191.328 174.712 191.682C172.372 192.355 174.127 190.506 173.79 189.404C173.578 188.714 174.464 187.948 174.659 187.239C175.03 185.932 174.712 184.512 174.996 183.28C175.049 182.44 175.439 180.536 176.2 180.143C177.76 179.322 177.069 178.127 176.732 176.689C176.537 175.886 176.98 174.655 176.732 174.057C176.111 172.581 175.969 172.75 177.281 171.984C178.451 171.293 177.618 169.201 176.431 169.201C175.386 169.201 175.35 169.986 174.553 170.323C173.667 170.696 172.709 171.126 172.391 172.246C172.071 173.348 170.53 174.448 169.432 174.448C168.387 175.251 168.316 176.391 167.005 176.726C165.853 177.006 165.162 178.089 164.011 178.482C162.576 178.967 159.829 182.851 158.695 182.141C158.411 181.974 158.536 180.927 158.163 181.133C157.366 181.6 158.269 182.011 156.976 182.011C156.197 182.011 156.764 182.738 157.525 182.571C159.954 182.047 157.243 184.307 159.617 184.943L158.057 188.657C156.959 191.271 156.516 189.834 154.797 191.384C154.053 192.055 153.593 193.326 153.061 191.831C152.654 190.655 152.583 189.181 152.424 187.93C152.051 185.072 149.978 185.39 148.791 183.429C148.1 182.309 147.64 181.787 146.294 181.674C145.673 181.88 145.885 182.291 145.107 182.291C144.609 182.291 144.433 182.832 144.522 183.243C144.664 183.914 143.583 184.625 144.698 184.961C144.77 185.539 142.873 186.603 142.307 186.734C142.077 187.705 141.421 188.377 142.13 189.348C143.511 191.197 140.677 189.535 140.819 188.583C140.836 188.47 141.634 187.145 141.722 187.052C141.953 186.81 144.327 185.539 143.388 185.316C142.892 185.203 142.112 185.521 141.527 185.465C140.571 185.372 139.827 184.681 138.817 184.812C137.913 184.923 137.063 185.632 136.301 185.726C136.159 185.11 137.027 184.905 137.293 184.55C137.718 183.971 135.964 184.045 135.734 184.158C135.149 184.401 134.6 184.307 134.068 184.532C133.519 185.185 134.21 185.876 134.21 186.566C134.21 187.499 135.309 186.903 135.486 186.305C135.681 185.632 135.893 186.063 135.787 186.51C135.645 187.052 135.096 187.443 134.901 187.985C134.813 188.19 134.653 189.143 134.441 189.143C134.157 189.143 133.909 188.937 133.555 188.937C133.059 188.937 132.58 188.919 132.12 189.124C129.905 190.114 129.745 191.588 129.232 193.886C129.125 195.211 129.427 196.5 129.993 197.694C130.277 198.291 128.86 199.598 128.257 199.561C127.46 199.525 126.787 199.318 126.503 200.438C126.255 201.447 126.184 202.492 126.769 203.314C127.832 204.79 128.523 205.481 128.523 207.477C128.523 208.262 128.806 209.681 128.647 210.335C128.594 210.335 128.576 210.353 128.558 210.315H128.488C128.239 209.27 126.645 209.98 126.149 209.942C124.359 209.793 124.271 211.417 124.058 212.78C124.838 213.975 127.017 213.713 127.017 214.647L126.999 217.392C126.999 218.045 125.635 218.158 126.025 217.747C128.275 215.376 122.357 213.975 122.021 214.965C121.33 216.945 124.43 218.961 123.775 220.063C122.641 221.985 121.95 220.323 121.755 221.07C121.595 221.687 121.312 222.097 120.869 222.49C120.284 223.012 120.32 223.928 119.895 224.599C119.274 225.57 118.3 225.813 117.361 226.317C115.146 227.475 113.782 230.5 112.329 232.46L110.168 236.96C109.566 238.211 108.928 239.405 108.538 240.768L106.341 248.722C106.164 249.357 106.323 250.833 106.571 251.486C106.837 252.214 107.262 252.849 106.111 252.849C106.111 253.391 106.341 253.278 106.678 253.409C106.943 253.502 106.943 253.858 107.032 254.1C107.369 254.958 107.705 255.78 108.237 256.527C109.229 257.909 112.117 259.552 113.782 259.552C115.288 259.552 114.881 257.703 115.111 256.396C117.06 250.478 122.145 258.692 125.121 258.692C127.017 258.692 126.68 258.917 127.442 260.653C128.204 262.408 126.184 263.361 126.787 265.284C127.123 266.329 125.422 265.993 125.121 266.982C124.501 268.98 124.873 269.317 122.853 270.12C121.56 271.034 120.657 271.314 119.771 272.789C119.292 273.592 118.991 275.366 119.115 276.337C119.399 278.559 119.7 280.464 120.408 282.573C120.727 283.544 119.966 285.971 119.664 286.924C119.664 288.829 119.044 291.536 120.391 292.936C122.464 295.121 123.119 292.861 125.352 292.861C127.088 292.861 126.291 292.787 127.318 294.281C127.584 294.654 126.911 295.363 126.911 295.792C126.911 297.622 127.478 299.321 127.052 301.113C126.964 301.524 128.098 303.691 128.257 304.418C128.488 305.222 128.576 305.949 128.505 306.789C128.452 307.349 128.169 307.947 128.541 308.507C129.285 309.59 128.381 310.467 127.442 311.085C126.485 311.719 125.972 310.898 125.139 312.13C124.466 313.119 124.005 314.352 123.456 315.248C122.942 315.248 122.534 314.763 122.003 314.763C121.241 314.763 120.302 313.772 119.682 313.306C119.221 312.596 119.274 312.074 118.672 311.383C118.247 310.916 118.513 310.338 118.3 309.796C117.999 309.049 116.139 308.358 116.67 308.022C117.131 307.723 117.875 307.536 118.123 307.033C118.708 305.856 118.778 304.978 120.019 304.4C121.436 303.728 122.233 301.991 123.403 301.544C123.863 301.375 125.103 300.46 124.59 299.863C122.836 297.846 122.251 300.833 121.755 302.122C121.312 303.242 119.292 301.188 118.796 300.89C118.017 300.442 117.964 301.244 117.45 301.711C117.024 302.104 113.623 303.242 113.587 303.355C113.197 304.755 115.324 305.222 115.483 306.098C115.572 306.566 116.581 307.387 116.404 307.687C115.997 308.396 115.395 308.843 114.562 308.843C113.605 308.843 112.436 310.076 111.39 310.449C109.973 311.047 109.14 311.961 108.059 312.988C106.819 314.165 108.183 314.501 107.723 315.416C107.369 316.126 106.873 316.479 106.66 317.301C105.774 320.924 103.666 323.593 103.152 327.327C102.372 329.792 102 333.452 102.284 336.066C102.549 338.586 103.099 340.398 103.861 342.731C104.179 343.721 105.172 344.785 105.721 345.682C106.465 346.727 106.819 347.512 107.369 348.707C107.829 349.714 108.52 350.275 109.123 351.115C108.591 351.843 108.13 351.414 108.13 352.702C108.13 353.915 107.811 354.102 106.943 354.906C105.597 356.175 103.471 358.36 102.62 360.078C101.876 361.571 100.601 360.431 99.1831 360.507C98.1024 360.544 97.0571 361.235 95.9941 361.272C93.1948 361.963 94.2933 360.32 93.4251 359.237C92.4684 358.06 90.8207 358.304 89.5272 358.695C85.5941 359.929 81.962 363.009 79.393 366.314C77.9403 368.199 76.0976 369.637 74.1842 370.944C73.6172 372.083 73.3692 373.633 73.068 374.884C72.7845 376.078 72.1643 377.18 71.8809 378.338C71.4203 380.26 71.1368 382.054 71.2254 384.052C71.2786 385.414 71.0836 385.152 71.9873 385.788C72.3593 386.048 72.3593 387.15 72.5719 387.599C72.9262 388.812 73.1034 388.233 73.1034 389.577C73.1034 390.044 73.5818 391.388 73.1034 391.351C71.438 391.257 70.7292 389.726 71.3848 391.968C71.6506 392.844 70.6406 393.611 72.0227 394.077C73.192 394.488 71.1368 395.478 73.2452 395.926C73.2452 396.411 71.8101 397.4 72.3593 397.867C72.7668 398.204 74.131 398.316 74.131 398.447C74.131 398.987 73.9007 399.361 74.0424 399.958C74.2019 400.649 74.9105 402.012 73.9362 402.163C73.0148 402.312 72.7137 401.154 71.8631 400.687C69.8257 399.605 68.869 399.958 70.623 397.811C71.0836 397.233 69.2411 398.204 69.0815 398.298C68.373 398.783 67.682 398.334 66.7429 398.391C65.0598 398.465 64.8472 400.183 63.7665 400.649C63.2349 400.874 62.8628 400.314 62.3668 400.5C60.6659 401.116 59.2662 402.199 57.6008 402.89C56.3429 403.823 55.5455 404.403 54.8546 405.784C54.3054 406.886 53.3133 406.961 53.0829 408.23C52.2148 408.379 50.8329 404.085 50.7265 403.17C49.9469 403.17 47.1831 407.371 48.6004 407.763C49.8052 408.099 49.1674 407.931 49.5749 407.203C50.7443 407.446 51.258 407.764 51.3289 409.088C51.3466 409.406 50.2127 411.329 49.8229 411.404C49.2028 411.535 48.4942 412.226 49.4864 412.524C50.1595 412.731 50.9923 413.011 50.4607 414.055C49.9824 414.989 49.7875 417.323 48.3878 415.624C47.6791 414.747 48.0689 415.325 48.0689 415.885C48.0689 416.856 47.9981 416.687 48.8662 417.285C49.2738 417.565 49.5218 419.152 49.3978 419.694C49.2206 420.497 48.8662 420.329 48.813 421.45C49.38 421.99 50.6203 421.823 50.0355 422.868C49.4686 423.877 48.6004 423.503 49.9647 424.25C51.2758 424.959 48.2107 426.546 47.5551 426.939C47.4489 427.797 47.6437 428.264 47.4843 429.124C45.8897 429.609 46.1732 429.982 46.2796 431.457C46.2972 431.68 45.3051 434.407 45.0925 434.669C44.6317 435.265 43.5688 436.387 43.303 437.04C42.6652 438.608 41.9033 438.627 41.3896 440.139C40.6454 441.801 38.5016 445.293 36.8363 445.926C35.9858 446.244 35.4898 446.206 34.6747 446.711C33.5231 447.421 32.9208 448.597 32.4424 449.849C32.3006 450.202 32.4068 451.323 32.1412 451.435C31.4679 451.734 31.1845 451.173 30.5643 451.883L25.4085 457.821C24.5228 458.754 23.3711 459.688 22.6801 460.77C21.9892 461.835 21.0147 462.432 20.1643 463.291C19.9517 463.497 19.2784 464.486 19.0658 464.486C18.871 463.851 20.0049 462.19 20.3947 461.63C20.7667 460.995 20.6249 460.061 20.5719 459.37C20.5187 458.661 19.7213 458.679 19.7213 457.97C19.7213 456.868 19.7568 455.151 18.8178 454.478C17.5953 453.601 17.1169 454.03 17.0283 452.069C16.9575 450.333 16.4082 449.026 16.1602 447.364C16.0362 446.58 16.1956 445.759 16.0716 444.975L16.0894 434.015C16.0008 431.644 15.6641 428.993 15.0971 426.677C14.6365 424.792 14.5657 422.775 13.9278 420.927L13.0597 418.405C12.9534 418.107 13.609 418.779 13.8216 418.779C13.8392 418.816 13.857 418.836 13.8924 418.854C13.8924 418.91 13.8924 418.91 13.9278 418.929C14.0342 419.414 14.9909 420.161 15.1681 419.245C15.2743 418.685 13.9278 418.611 13.3077 418.238C13.0065 417.92 12.5104 416.725 12.2801 416.258C11.7309 415.213 11.3057 414.037 10.9513 412.898C10.2426 410.657 9.78199 407.408 9.72884 405.056C9.67568 403.208 9.72884 400.725 9.32133 398.951L6.98266 380.802C6.84093 378.151 5.95506 374.491 5.22865 371.915C4.36051 368.852 4.02388 365.603 3.61639 362.467L1.75608 353.635C1.08282 350.405 1.08282 347.083 1.01196 343.758C0.834774 340.267 0.196958 337.037 0.693042 333.508L2.00412 324.191C2.57107 321.184 1.82694 317.917 2.78367 314.912C3.81127 311.719 4.89203 309.012 5.40582 305.595C5.9019 302.608 6.32713 299.508 7.08897 296.577C7.35472 295.55 7.8508 294.597 8.08114 293.57C8.32918 293.234 8.63036 292.898 8.77211 292.507C8.8784 292.227 9.09101 291.816 9.32133 291.629C10.03 291.031 10.4552 290.247 10.969 289.463C11.2879 289.463 10.845 290.358 10.845 290.602C11.2348 290.285 11.412 290.154 11.66 289.725C12.0321 289.127 12.5104 288.66 13.0774 288.156C13.3077 287.951 13.4317 287.745 13.6976 287.578C14.9909 286.531 17.5067 284.217 16.9043 282.162C16.7448 281.584 15.9476 281.508 17.0283 281.286C17.8079 281.135 18.5698 281.695 19.1898 281.21C21.8652 279.101 24.7354 272.192 24.2746 268.664C23.5837 266.46 23.6723 264.144 22.3967 262.148C21.0856 260.13 20.2705 260.803 22.7155 258.879C23.3535 258.376 24.4342 256.845 24.4872 256.919L25.1783 257.983C25.8693 259.048 28.5623 259.832 29.7316 259.663C31.1489 259.459 36.0389 255.574 33.8419 254.436C33.8419 254.212 35.348 253.334 35.348 251.785C36.8007 250.907 40.6632 255.145 42.8601 252.12C44.9861 250.758 45.7834 249.787 47.4843 247.995C48.3347 247.098 52.0554 242.561 52.8703 242.486C53.6321 242.412 53.951 242.281 54.5534 241.796L56.6441 240.114C58.6285 238.528 59.4966 237.501 59.9218 234.849C61.8529 231.489 67.6288 228.744 67.6288 224.506C67.6642 224.488 67.6642 224.506 67.6642 224.468C70.8534 224.468 68.373 219.876 69.4713 218.158C70.0383 217.28 71.0306 216.758 70.9774 215.525C71.2608 215.04 71.562 213.713 72.2707 214.685C72.8199 215.431 73.2096 214.871 73.3692 213.9C73.7766 211.511 75.1231 211.437 76.3456 209.55C77.2493 208.168 76.4166 207.683 78.2414 207.683C79.7297 207.683 80.6687 204.547 80.899 203.352L81.466 200.496C81.5546 200.065 83.9286 200.158 84.5134 199.412C85.8953 198.851 87.0646 198.553 88.3225 197.713C89.3147 197.06 89.0489 195.155 89.545 194.931C90.4132 194.539 90.6966 194.389 91.4585 193.773C92.7872 192.691 92.61 192.204 93.3188 190.917C94.5767 190.917 94.9488 189.741 95.2854 188.583C95.7284 187.07 96.6851 186.697 97.6418 185.632C98.2442 184.979 98.0492 183.859 98.3682 183.429C99.5375 183.747 102.053 181.861 102.638 180.778C103.931 179.284 107.103 177.062 105.597 174.598C105.101 173.777 104.8 173.702 105.331 172.731C105.827 171.797 105.189 170.864 106.199 170.416C107.191 169.986 107.67 168.679 108.662 168.679C109.371 168.679 109.548 167.952 109.778 167.428C109.849 167.279 110.682 166.719 110.859 166.588C113.41 166.588 113.073 166.103 114.668 164.423C115.944 163.078 116.387 164.889 117.645 164.423C119.15 163.881 121.932 157.047 123.261 158.055C125.724 159.904 124.59 156.879 126.68 157.495C127.566 157.757 128.647 156.693 128.647 157.887C128.647 158.242 130.348 156.244 130.72 155.89C131.411 155.442 132.314 155.068 133.129 154.937C133.98 154.806 134.033 155.255 134.671 155.628C135.273 155.984 134.866 153.966 135.149 153.537C135.787 152.585 135.291 152.902 134.228 152.622C133.998 152.566 131.322 150.027 131.234 149.821C130.879 148.925 133.785 148.365 133.147 146.965C132.775 146.143 134.033 145.359 134.582 144.892L137.134 142.745C138.746 141.401 138.072 141.699 138.87 140.001C139.206 139.291 139.437 138.712 139.667 137.947C139.827 136.005 137.311 132.644 135.716 135.333C135.663 135.333 135.645 135.351 135.592 135.351C135.539 135.295 135.486 135.258 135.45 135.221L135.344 133.167C135.291 132.103 135.893 131.785 136.301 130.889C136.939 129.489 136.779 126.464 138.498 126.072C140.606 125.605 139.862 125.101 140.181 123.178C140.376 121.983 140.571 121.479 140.269 120.228C140.128 118.846 140.872 118.827 141.031 117.726C141.191 116.549 140.358 115.56 140.393 114.496C140.411 113.786 140.996 113.207 141.031 112.535C141.067 111.546 140.624 111.06 140.996 110.033C141.421 108.857 141.262 107.494 141.563 106.243C142.094 104.021 142.325 103.312 144.113 101.967C145.868 100.922 146.559 100.903 147.515 98.9613C148.509 96.9635 148.897 98.0837 150.351 97.2435C151.29 96.7021 152.104 97.6356 152.99 97.897C154.178 98.233 155.754 98.6252 156.959 98.6252C158.146 98.6252 159.068 100.081 160.166 100.081C160.166 99.316 157.65 98.8493 157.455 97.7103C157.331 96.9448 159.971 96.5341 160.537 96.5341C160.98 96.5341 163.284 96.7955 163.337 96.5341L157.845 95.8431C155.488 95.5444 154.567 93.584 152.477 93.0799C150.315 92.557 150.936 91.5675 149.872 89.9431C149.376 89.5697 149.501 88.9536 148.791 88.7667C148.136 88.5987 147.498 88.8416 146.824 88.6547C144.503 88.02 145.495 89.159 143.848 89.7004C141.527 90.4658 139.012 88.7294 138.143 92.3516C137.452 92.6692 137.204 91.4555 134.795 92.2023L130.932 93.3786C129.923 93.696 129.71 94.1814 128.541 94.4054C127.371 94.6296 126.964 96.0859 126.964 97.2622C126.964 98.0277 125.6 97.9716 125.6 98.2704C126.645 98.7559 127.797 99.7828 128.541 100.791C128.665 101.127 129.32 101.22 129.285 101.631C129.249 101.911 128.523 102.005 128.293 102.023C126.964 102.21 127.23 102.135 126.928 103.386C126.698 104.357 124.023 105.365 124.288 106.131C124.607 107.027 124.678 107.662 124.909 108.577C125.192 109.791 124.342 111.788 126.096 111.788C126.096 111.994 125.157 113.357 124.997 113.73C124.607 114.664 124.359 115.186 124.359 116.195C124.359 116.867 123.474 116.83 123.474 117.446C123.474 118.454 123.686 119.089 122.907 119.948C121.897 122.095 124.979 123.252 126.415 123.701C127.655 124.093 129.48 125.922 127.619 126.912C127.389 127.043 126.592 127.136 126.592 127.173C126.592 127.341 126.857 128.275 126.184 128.051C125.741 127.902 125.564 127.117 124.909 127.733C123.403 129.209 125.529 129.993 123.846 131.318C122.942 132.046 121.56 128.611 121.206 128.312C119.363 126.744 121.932 127.883 121.649 126.053C121.56 125.549 121.347 124.783 120.781 124.653C119.877 124.447 117.29 125.624 116.918 126.464C116.156 128.144 119.912 127.883 119.328 128.686C118.619 129.657 115.483 126.538 114.898 126.109C114.65 125.922 114.438 125.829 114.261 125.792L114.491 124.13C114.526 123.42 113.676 123.495 113.64 122.991C113.623 122.748 114.509 122.58 114.509 121.945C114.509 121.255 112.914 121.311 112.843 120.228C112.808 119.63 112.914 118.827 112.595 118.305C112.383 117.987 111.142 117.539 111.461 117.016C112.56 115.149 112.79 117.016 114.349 116.251C115.43 115.728 114.686 114.869 115.164 114.141C115.643 113.394 115.501 113.357 115.359 112.442C115.093 110.855 115.111 111.135 113.729 110.743C112.152 110.295 110.894 109.94 109.566 108.894C109.831 107.662 110.15 107.363 111.213 107.494C111.674 107.55 112.4 106.691 112.843 106.411C113.499 105.982 113.57 105.16 114.597 105.365C115.288 105.496 115.483 104.6 116.209 104.525C117.166 104.413 118.389 105.571 119.009 104.189C119.824 102.378 118.938 100.642 119.328 98.8119C119.753 96.7955 118.566 94.947 118.017 93.0986C118.406 91.5488 119.965 91.8662 119.965 90.7647C119.965 90.4098 120.586 88.5054 120.072 88.3747C119.416 88.2067 119.15 88.5614 118.336 88.2253C117.485 87.8706 116.493 88.0386 116.44 86.7316C116.404 85.8915 115.146 85.238 116.404 84.9018C116.404 83.5949 115.979 83.0534 114.898 83.0534C114.101 83.0534 113.251 81.5971 112.542 81.1303C111.142 80.2154 110.752 79.506 111.142 77.6575C111.39 76.5372 111.461 76.7052 111.94 75.8838C112.081 75.6411 111.195 74.8008 111.727 73.8113C112.152 73.6433 112.453 73.6433 112.719 73.2324C113.215 72.4483 113.109 73.1204 113.516 73.3071C113.764 73.4191 114.703 72.803 115.076 72.7283C115.306 72.6723 116.28 72.7656 116.387 72.6536C116.936 72.0749 115.66 70.8052 117.503 70.8052C119.806 70.8052 119.399 68.3966 119.399 66.5669C119.399 64.9611 119.806 65.1852 118.708 64.0275C118.229 63.5234 117.521 63.318 117.574 62.4032C117.591 62.0857 118.708 62.1044 119.08 61.899C119.593 61.6003 119.771 60.9468 120.32 60.7228C120.674 60.5734 121.099 60.6295 121.418 60.3681C121.595 60.2186 121.454 59.9385 121.507 59.7145C121.56 59.4531 122.233 59.0984 122.41 58.7997C122.623 58.445 122.428 57.7727 122.393 57.3993C122.659 56.335 122.694 55.1401 122.694 54.0385C122.694 53.5157 122.977 52.4887 122.446 52.3394C120.267 51.7419 121.454 51.2565 120.869 49.7628C120.586 49.0347 119.345 49.0907 119.026 48.1197C118.566 46.7194 118.619 44.5535 120.267 44.3295C120.71 44.2735 120.834 44.1241 121.029 43.7321C121.223 43.34 122.517 43.3027 122.216 42.7051C121.879 42.0516 121.719 41.7716 122.145 41.062C122.038 40.5019 122.092 39.6991 121.684 39.2882C120.869 38.4294 120.444 38.5788 120.444 37.1411C120.444 35.7035 119.239 32.7347 120.958 32.1186C121.737 31.8386 122.127 31.0916 122.871 30.7743C123.509 30.5129 125.44 31.9319 126.167 31.5584C126.326 31.4837 126.344 29.2059 126.344 28.8325C126.344 27.8802 127.548 26.1439 128.363 26.1065C129.338 26.0691 128.541 25.1356 129.249 24.7248C130.224 24.1646 130.383 24.8555 131.039 23.6792C130.738 22.6337 130.543 23.0071 129.692 22.8017C128.771 22.5963 129.249 22.3163 129.497 21.7934C130.419 19.945 127.424 18.1712 126.627 16.9577C125.936 15.912 125.511 15.0159 126.007 13.8022C126.202 13.3167 125.795 13.1487 125.883 12.6819C126.007 12.0284 126.663 11.5056 127.017 10.9829L127.212 9.84392C126.68 9.33979 126.468 9.13441 125.883 8.72365C125.848 8.68631 125.795 7.71541 125.476 7.34199C124.501 6.18436 126.68 5.64291 127.442 5.88563C128.682 6.29639 129.001 5.17612 129.462 4.20523C129.852 3.40237 130.862 3.45838 130.862 2.63685C130.862 2.00203 131.553 0.844416 132.173 1.0498C133.023 1.34854 132.828 1.53525 133.342 2.24476C133.909 3.04762 135.929 1.14316 136.425 2.93558C136.779 4.2239 138.072 3.57041 138.941 3.253C140.146 2.8049 141.598 2.17007 142.431 1.06848C143.316 -0.107805 144.876 2.39412 145.832 2.67419C147.657 3.3837 147.055 3.34636 148.153 4.78403C148.952 5.84829 149.482 5.36284 150.421 5.84829C150.953 6.12835 150.989 6.89387 151.555 7.09925C153.557 7.79009 153.646 8.44357 153.859 10.6281C154.178 10.9082 155.24 10.9642 155.736 10.9642C155.754 10.9268 155.772 10.9082 155.808 10.8708C155.808 9.47049 156.321 8.87302 156.056 7.54737C155.931 6.8752 156.073 4.70935 156.374 4.16789C158.021 3.92517 158.89 4.2239 160.272 5.12011C161.283 5.7736 161.211 7.11792 162.54 7.80876C163.32 8.21952 164.064 7.77142 164.719 8.23819C165.836 9.04105 166.952 6.78185 167.589 9.05973C167.855 10.012 168.156 11.823 169.025 12.3272C169.184 12.7566 169.538 12.9247 169.822 13.2234L169.928 15.856C170.513 16.3041 173.135 16.3788 173.135 15.4826C173.135 15.0719 174.96 13.1487 175.403 13.6528C176.573 15.0159 177.955 13.6715 179.106 14.6423L181.639 16.7896C182.631 17.6298 182.861 16.2481 183.712 16.1174C184.597 15.9867 184.705 17.0137 185.731 16.5654C187.539 15.8 188.442 17.7044 189.222 15.4266C189.576 14.3623 190.356 13.8209 191.401 13.5035C193.51 12.8686 193.191 14.437 194.272 16.1547C194.732 16.883 194.449 17.8351 194.803 18.6007C195.087 19.2542 196.132 18.6567 196.752 19.1048C196.752 20.0756 197 20.6546 197.939 20.9719C199.02 21.1586 198.505 21.7747 198.931 22.6524C199.622 24.0526 199.906 25.2103 201.464 24.7248C203.272 24.1646 201.837 25.4903 203.024 26.0691C204.175 26.6106 208.304 27.6375 208.552 25.845C208.853 23.7725 210.022 26.4053 211.563 25.8637C214.026 25.0049 215.48 26.6293 215.993 29.1312C216.33 30.7369 217.888 29.7846 218.633 30.8489C219.236 31.6891 218.42 32.7347 218.704 33.5935C218.562 34.1911 219.217 34.8819 219.217 35.5728C219.217 36.1889 218.793 36.749 219.324 37.2718C220.015 37.944 219.696 39.2509 220.564 39.2509C220.865 39.2509 222.584 39.1015 222.584 39.3256C222.69 40.8006 222.796 40.8566 224.391 40.8006L227.881 40.6699L227.898 40.6886C227.544 43.396 227.544 44.3668 230.327 44.9269C231.478 45.1511 230.982 49.2214 230.982 50.1175C230.946 50.8271 232.258 51.0885 231.425 51.6486C229.778 52.7876 231.018 53.0303 230.503 54.5987C230.132 55.7002 229.263 55.4575 228.519 55.9803C227.616 56.6152 227.758 56.5965 226.624 56.5965C224.994 56.5965 223.86 60.4054 222.531 61.3949C222.141 61.787 221.361 62.179 221.184 62.7393C220.671 64.3077 219.874 64.0462 219.236 65.1665C218.456 66.5482 218.191 68.8074 216.932 69.8717C216.4 70.3198 216.063 70.0024 215.62 70.5998C215.037 71.4213 214.541 72.2429 213.708 72.803C212.892 73.3444 213.14 73.7366 213.708 74.4461C214.984 76.0145 216.082 75.3235 217.375 76.4999C218.562 77.5829 219.377 79.4313 221.379 78.647C222.318 78.7404 223.505 77.2467 224.462 78.199C225.329 79.0764 225.276 79.5993 226.516 80.2901C227.067 80.6075 227.97 80.6262 227.97 81.4291C227.97 82.5866 229.937 84.0243 230.734 84.7525C231.656 85.5928 231.637 86.8436 232.807 87.6092C234.1 88.4494 235.996 90.2791 237.537 89.439C239.432 88.3934 239.256 90.1858 238.493 91.3061C238.6 93.2292 236.687 93.976 238.919 95.0217C240.797 95.9178 239.468 96.1979 239.468 97.785C239.468 98.2144 240.036 98.3639 240.036 98.8679C240.036 100.175 239.911 100.175 240.672 101.258C241.115 101.874 241.115 102.584 241.418 103.218C242.09 104.693 244.021 102.359 244.642 102.509C245.138 102.64 245.528 103.274 246.113 103.349C247.548 103.573 248.008 103.293 249.124 104.413C250.4 105.701 252.508 103.666 254.084 103.853C256.246 104.115 255.078 102.359 256.636 101.855C257.505 101.613 257.717 100.287 258.497 100.25C259.347 100.212 258.338 101.388 258.533 101.855C258.656 102.154 260.109 101.519 260.481 101.519C261.296 101.519 259.737 103.33 262.288 102.789C263.103 102.621 264.414 102.173 265.123 101.762C266.133 101.183 266.877 101.594 267.78 101.09C268.418 100.735 267.549 99.4467 268.524 99.316C269.145 99.2227 270.012 99.2973 270.315 98.5132C271.006 96.7021 271.502 97.4676 273.327 97.2809C274.868 97.1315 274.69 97.2062 274.655 98.6252C274.584 101.015 275.753 100.007 277.171 99.316C277.862 98.98 277.542 98.121 278.606 97.9343C279.473 97.7849 280.359 98.1957 281.209 98.4012C283.443 98.7372 282.29 98.7746 282.947 100.137C284.452 103.33 284.878 98.9426 286.987 99.9881C287.624 100.306 288.704 99.9134 288.704 99.1107C288.704 97.4302 291.114 98.1583 291.805 97.8596C292.442 97.5983 292.691 96.8515 293.222 96.4032C293.807 95.9178 295.615 94.8537 296.075 95.2644C297.05 96.1419 297.563 93.584 298.307 93.9947L300.505 95.1897C301.089 95.5071 301.497 96.7208 301.798 97.3369C302.311 98.3825 302.896 97.9903 303.569 97.4302C304.048 97.0195 305.854 97.5796 305.89 98.233C305.926 98.8306 306.068 100.362 305.89 100.866C305.394 102.229 304.012 102.826 304.827 104.525C305.695 106.299 305.235 106.299 305.235 108.092C305.66 109.062 305.412 109.604 306.227 110.351C307.06 111.097 306.617 111.359 307.698 110.911C308.459 110.593 308.406 110.799 309.008 111.097C310.248 111.695 308.495 113.077 309.54 113.077C310.231 113.077 310.833 112.871 310.905 113.768C310.939 114.272 311.134 114.944 311.028 115.448C310.869 116.213 310.409 117.035 311.134 117.632C311.95 118.286 311.401 120.004 311.401 120.881L311.471 121.03ZM116.652 129.507C116.316 129.451 116.015 129.339 115.66 129.433C115.465 129.489 115.146 129.563 115.253 129.843C115.324 130.03 115.607 130.011 115.767 130.067C116.121 130.179 116.457 130.329 116.83 130.329C117.255 130.329 117.255 129.899 116.989 129.657L116.67 129.507H116.652ZM151.165 220.118C150.758 221.723 151.36 223.703 149.039 223.592C146.684 223.479 146.559 224.226 144.628 225.103C143.388 225.664 142.502 225.346 141.244 226.335C139.791 227.493 139.012 228.557 137.293 229.36C135.876 230.013 133.909 232.404 132.686 233.58C132.208 234.047 131.393 236.493 130.968 236.605C129.303 234.402 130.702 234.607 131.96 233.618C133.679 232.255 133.041 231.471 134.068 229.827C134.883 228.52 135.362 227.606 135.539 226.019C135.787 223.834 136.053 222.901 137.08 220.977C137.47 220.585 138.161 219.652 138.161 219.092C137.771 218.998 136.053 219.167 136 218.643C135.982 218.456 136.939 218.587 137.063 218.605C139.224 218.792 141.049 217.131 142.98 216.291C143.636 215.991 144.327 215.862 144.84 215.302C145.69 214.367 146.275 213.433 147.303 212.557C147.64 212.258 149.058 210.577 149.058 211.679C149.058 213.117 149.145 214.834 149.855 216.067C150.51 217.187 151.485 217.262 151.485 218.756L151.148 220.1L151.165 220.118ZM179.566 347.829C177.902 346.952 179.07 344.823 177.565 343.758C176.236 342.807 175.083 340.902 175.119 339.166C175.138 338.026 176.412 337.019 176.412 336.477C175.863 336.01 173.347 336.159 172.444 335.824C170.689 335.17 170.991 334.908 169.449 336.141C168.652 336.757 167.926 336.588 167.164 336.981C166.934 337.541 169.113 338.082 169.468 338.213C170.371 338.549 170.602 338.96 171.151 339.689V340.249C171.469 340.678 172.213 341.033 172.675 341.537C173.419 342.358 173.366 342.9 173.258 343.964C173.171 344.785 173.631 344.916 173.879 345.551C173.968 345.607 173.915 345.589 174.021 345.589C174.322 346.074 174.64 346.298 174.818 346.876C175.155 347.941 175.155 348.614 176.13 349.323C176.908 349.883 177.139 350.686 177.777 351.283C178.432 351.899 179.336 351.75 180.115 351.899C180.789 352.03 180.24 353.299 181.019 353.935C181.568 354.382 182.064 354.999 182.525 355.559C183.517 356.791 182.596 352.497 182.525 352.068C182.437 351.432 182.631 350.761 182.206 350.237C181.905 349.863 181.108 349.099 180.736 348.874L179.566 347.829ZM201.074 355.466C200.525 355.559 200.224 353.915 199.639 353.542C199.196 353.262 197.585 352.684 197.443 352.199C197.248 351.526 196.805 350.704 195.937 350.704C195.937 351.637 196.964 352.702 197.265 353.599C197.62 354.644 198.753 354.737 199.499 355.315C200.19 355.839 200.33 356.697 201.11 357.127C201.748 357.482 202.598 357.37 203.166 357.931C203.963 358.733 204.317 359.591 205.256 360.376C205.504 360.582 206.532 361.945 206.816 361.534C207.011 361.253 205.805 360.376 205.61 360.171C204.707 359.2 204.707 358.584 204.105 357.444C203.84 356.922 203.537 356.904 203.041 356.717C202.439 356.473 202.174 356.082 201.678 355.764L201.057 355.446L201.074 355.466Z" stroke="#0019FC"></path> </svg> 